<?xml version="1.0" encoding="UTF-8"?>
<svg id="Layer_1" data-name="Layer 1" xmlns="http://www.w3.org/2000/svg" xmlns:xlink="http://www.w3.org/1999/xlink" viewBox="0 0 288.99 288.99">
  <defs>
    <style>
      .cls-1 {
        fill: url(#GradientFill_1);
      }

      .cls-1, .cls-2 {
        fill-rule: evenodd;
      }

      .cls-3 {
        fill: #fff;
      }

      .cls-2 {
        fill: url(#GradientFill_2);
      }

      .cls-4 {
        fill: #e2e2e2;
      }

      .cls-5, .cls-6 {
        fill: #0d6ab4;
      }

      .cls-6 {
        stroke: #116eb7;
        stroke-miterlimit: 10;
        stroke-width: 2px;
      }

      .cls-7 {
        fill: #f49bc2;
      }

      .cls-8 {
        fill: #bf759a;
      }
    </style>
    <linearGradient id="GradientFill_1" data-name="GradientFill 1" x1="110.02" y1="67.84" x2="110.02" y2="331.39" gradientUnits="userSpaceOnUse">
      <stop offset="0" stop-color="#0057a8"/>
      <stop offset=".65" stop-color="#0091d3"/>
      <stop offset="1" stop-color="#0091d3"/>
    </linearGradient>
    <linearGradient id="GradientFill_2" data-name="GradientFill 2" x1="144.49" y1="253.96" x2="144.49" y2="35.05" gradientUnits="userSpaceOnUse">
      <stop offset="0" stop-color="#0057a8"/>
      <stop offset=".66" stop-color="#0091d3"/>
      <stop offset="1" stop-color="#0091d3"/>
    </linearGradient>
  </defs>
  <rect class="cls-3" x="27.62" y="23.36" width="233.74" height="233.74" rx="116.87" ry="116.87"/>
  <g>
    <path class="cls-1" d="M0,144.49c0,79.79,64.71,144.49,144.49,144.49-67.68-18.8-101.63-149-72.54-210.14,2.43-6.88,6-12.52,10.94-16.41,4.82-3.79,10.93-5.92,18.55-5.92,16.15,0,29.66,13.1,43.05,13.1s26.9-13.1,43.05-13.1c19.7,0,30.71,16.15,32.49,34.61C217.42,18.39,22.19-20.2,0,144.49Z"/>
    <path class="cls-2" d="M71.95,78.85c-29.09,61.14,4.87,191.34,72.54,210.14,79.79,0,144.49-64.71,144.49-144.49S224.28,0,144.49,0,0,64.71,0,144.49C22.19-20.2,217.42,18.39,220.03,91.13c7.94,51.25-25.07,141.34-41.85,141.34-29.76,0-3.87-60.09-33.69-63.54-29.82,3.44-3.93,63.54-33.69,63.54-18.22,0-55.59-106.25-38.85-153.62Z"/>
  </g>
  <g>
    <ellipse class="cls-5" cx="116.79" cy="104.42" rx="11.17" ry="14.33"/>
    <path class="cls-6" d="M179.54,131.17c0,8.84-3.58,16.87-9.38,22.67-1.23,1.23-2.54,2.35-3.96,3.36-2.34,1.68-4.91,3.06-7.67,4.08-3.44,1.25-7.16,1.94-11.04,1.94h-3.96c-3.91,0-7.67-.71-11.15-1.99-2.37-.88-4.62-2.04-6.7-3.43-8.58-5.75-14.23-15.52-14.23-26.63,2.46,.76,4.91,1.45,7.34,2.06,18.81,4.72,36.6,4.74,53.41,.21,2.47-.66,4.91-1.42,7.34-2.27Z"/>
    <circle class="cls-3" cx="119.7" cy="98.04" r="5.25"/>
    <ellipse class="cls-5" cx="172.2" cy="104.42" rx="11.17" ry="14.33"/>
    <circle class="cls-3" cx="175.12" cy="98.04" r="5.25"/>
    <path class="cls-8" d="M158.98,157.82c0,.1,0,.21-.02,.31-.12-2.58-1.56-4.62-3.31-4.62h-20.32c-1.8,0-3.27,2.16-3.32,4.86v-.55c0-2.75,1.49-4.98,3.32-4.98h20.32c1.83,0,3.32,2.23,3.32,4.98Z"/>
    <path class="cls-7" d="M158.96,158.13c-.02,1.09-.16,2.16-.43,3.15-3.44,1.25-7.16,1.94-11.04,1.94h-3.96c-3.91,0-7.67-.71-11.15-1.99-.22-.87-.35-1.78-.36-2.73v-.12c.05-2.7,1.52-4.86,3.32-4.86h20.32c1.75,0,3.18,2.04,3.31,4.62Z"/>
    <path class="cls-7" d="M158.96,158.13c-.02,1.09-.16,2.16-.43,3.15-3.44,1.25-7.16,1.94-11.04,1.94h-3.96c-3.91,0-7.67-.71-11.15-1.99-.22-.87-.35-1.78-.36-2.73v-.12c.05-2.7,1.52-4.86,3.32-4.86h20.32c1.75,0,3.18,2.04,3.31,4.62Z"/>
    <path class="cls-4" d="M172.2,135.96v.85c0,4.24-3.44,7.68-7.68,7.68h-38.04c-4.24,0-7.68-3.44-7.68-7.68v-.85c0,4.24,3.44,7.68,7.68,7.68h38.04c4.24,0,7.68-3.44,7.68-7.68Z"/>
    <path class="cls-3" d="M172.2,133.9v2.06c0,4.24-3.44,7.68-7.68,7.68h-38.04c-4.24,0-7.68-3.44-7.68-7.68v-2.27c18.81,4.72,36.6,4.74,53.41,.21Z"/>
    <path class="cls-3" d="M172.2,133.9v2.06c0,4.24-3.44,7.68-7.68,7.68h-38.04c-4.24,0-7.68-3.44-7.68-7.68v-2.27c18.81,4.72,36.6,4.74,53.41,.21Z"/>
  </g>
</svg>